<?xml version="1.0" encoding="UTF-8"?>
<svg id="Layer_1" xmlns="http://www.w3.org/2000/svg" version="1.1" viewBox="0 0 114.6 235.9">
  <!-- Generator: Adobe Illustrator 29.6.1, SVG Export Plug-In . SVG Version: 2.1.1 Build 9)  -->
  <defs>
    <style>
      .st0, .st1 {
        fill: #132257;
      }

      .st1 {
        stroke: #fff;
        stroke-linecap: round;
        stroke-linejoin: round;
        stroke-width: 2px;
      }
    </style>
  </defs>
  <g id="Layer_11" data-name="Layer_1">
    <path class="st1" d="M19.8,184.9c-1-.1-1.9.3-2.5,1-1.6,1.9-2.4,4.4-2.1,6.8h0c0,.6.1,1.1.4,1.8.3.9,1,1.5,1.9,1.9,1,0,1.9-.4,2.4-1.3,1.8-2.4,2.4-5.4,1.6-8.3-.3-.9-.8-1.5-1.6-1.8M77.5,210.1c.4-1.6.3-3.4-.6-4.9-.6-1.3-1.8-2.1-3.1-2.4l-1.4-.3c-2.1-.4-4.1-.9-6.1-1.4-3.9-1-7.3.9-9.1,4.8,1.9.5,3.8,1.1,5.6,1.5,0-.8.3-1.6.4-2.4,0-.6.6-1.1,1.3-1,.6,0,1,.5,1,1.1,0,1-.3,1.9-.4,2.9.4,0,.8.1,1.1.3.4,0,.8.1,1.1.3.4-1.6.5-2.9.5-3,0-.6.6-1,1.3-1s1,.6,1,1.3h0s-.3,1.5-.5,3c.8.1,1.5.3,2.1.4,0-.8.3-1.6.3-2.5s.5-1.1,1.1-1.1,1.1.5,1.1,1.1,0,1.8-.4,2.6c1.3.1,2.6.3,3.9.4M56.7,212.9c.8,1.5,2,2.8,3.5,3.4,2.9.8,5.8,1.4,8.6,1.6,3.5.4,6.4-1.6,7.9-5.6-1.3,0-2.5-.3-3.8-.4-.3.8-.6,1.6-1,2.4-.4.5-1,.6-1.5.4-.5-.3-.6-1-.4-1.5s.5-1,.6-1.5c-.8,0-1.4-.3-2.1-.4-.3.9-.5,1.6-.8,2.5-.3.6-.9.9-1.5.6s-.9-.9-.6-1.5h0c.3-.6.5-1.4.6-2l-1.1-.3c-.4,0-.8-.1-1.1-.3-.3.6-.5,1.4-.8,2s-.9.9-1.5.6-.9-.9-.6-1.5.5-1.1.6-1.6c-1.9-.5-3.9-1-5.8-1.6-.4,1.6-.3,3.3.4,4.8M81.8,184.3c-1.8-4.5-7.4-7.6-14.9-9.3-13.8-3.1-31.9,2-43.6,11.8.4,1.9.4,3.9-.3,5.8,10.3,5.3,20.9,9.5,31.8,12.8,2.6-6.1,7.9-7.4,11.9-6.4,2.9.8,4.8,1.1,6.1,1.4l1.5.4c2,.5,3.6,1.8,4.6,3.5,1,1.8,1.3,3.9.9,5.9.8,0,1.5-.1,2.3-.5,2.9-8.3,2.8-17.2-.4-25.3M68.8,220.1c-3.1-.4-6.1-.9-9.1-1.8-2.1-.9-3.9-2.5-4.9-4.5-.5-1.1-.8-2.3-.9-3.5,0-1,0-1.9.3-2.9-11-3.3-21.8-7.6-32.1-12.9-.3.5-.6,1-1,1.5-.5.8-1.3,1.3-2.1,1.6.8,7.1,3.3,13.9,7.1,19.9,5.1,8,12.1,13.4,19.8,15.2,2.6.6,6.1,1.4,9.4.6,11.5-2.5,21-10.4,25.8-21.3-.6,0-1.3.1-1.8.1-2.6,7.8-8.3,8-10.5,7.8M14.7,187.3c.4-.9.9-1.6,1.4-2.4.4-.5.9-.9,1.5-1.3,1.3-6.1,4.1-11.8,8.4-16.4-6.3,4.5-11,10.8-13.5,18.2.6.8,1.4,1.4,2.3,1.9M13.9,189.5c-.8-.5-1.5-1.1-2.3-1.8-1,3.6-1.4,7.4-1.3,11.1,0,.8,0,1.5.1,2.4.6-2.5,1.8-4.9,3.3-7.1-.3-1.5-.3-3.1,0-4.6M16.9,198c-.9-.3-1.6-.8-2-1.5-2.8,4.3-3.9,8-2.9,11.4,4.3,14.4,16.9,24.8,31.9,26.2-14.4-4.4-25-19.4-26.9-36.2M34.6,23.3c0-1.9-.3-3.8-.6-5.6,0,0,3.3-.1,3.3-4.3s-2.3-5.6-2.8-5.6-.6.5-1.6.5c-2.5,0-2.8-3.3-2.8-3.3h1.1c7.3,0,14,2.3,14,18.2s-.4,10.5-1,15.8c-.6,4.3-.9,8.6-.8,13,0,0-12.6-1.5-12.6-11s3.9-7.6,3.9-17.8M54.7,128.6c0,12.5-5.4,22.7-8.4,25.7-9.5,9.5-17.4,2.6-17.5,12.1-4.4,3.9-7.4,9.9-9,16.7h.3c.9.1,1.8.8,2.3,1.5,12.1-9.9,30.7-15,45-11.8,4.1.8,8,2.6,11.3,5.3-4.4-7.1-11.1-12.5-18.9-15.4-1.9-.6-5.3-1.5-5.3-7.5,0-11.4,12.4-2.5,20.7-14.9.4-.6,0-1.1-.6-.6-2.5,2.5-8.5,4.1-11.8,4.1s-3-.1-4.4-.8c2-3.9,4.3-7.6,6.9-11.1-7.6-7.6,5.1-49.5,39.1-49.5,0-7.6-.6-15.4-2.3-22.9-.8.3-7.1,1.8-7.5.4-.3-1.1,4.8-3.8,6.4-4.6-.8-3-1.9-5.8-3.4-8.5-29.1,9.1-23.2,33.2-30.3,33.2s-8.3-3.6-9.5-4.9c-17.3-17.3-9.3-28.8-9.3-51.8S42.3,1.9,31.2,1.9s-15.2,4.8-15.2,4.8c0,0,15.3.5,15.3,16.5s-18.9,21.4-18.9,42.7c0,35.4,42.2,34.7,42.2,62.7"/>
  </g>
  <g id="Layer_12" data-name="Layer_1">
    <path class="st0" d="M19.8,184.9c-1-.1-1.9.3-2.5,1-1.6,1.9-2.4,4.4-2.1,6.8h0c0,.6.1,1.1.4,1.8.3.9,1,1.5,1.9,1.9,1,0,1.9-.4,2.4-1.3,1.8-2.4,2.4-5.4,1.6-8.3-.3-.9-.8-1.5-1.6-1.8M77.5,210.1c.4-1.6.3-3.4-.6-4.9-.6-1.3-1.8-2.1-3.1-2.4l-1.4-.3c-2.1-.4-4.1-.9-6.1-1.4-3.9-1-7.3.9-9.1,4.8,1.9.5,3.8,1.1,5.6,1.5,0-.8.3-1.6.4-2.4,0-.6.6-1.1,1.3-1,.6,0,1,.5,1,1.1,0,1-.3,1.9-.4,2.9.4,0,.8.1,1.1.3.4,0,.8.1,1.1.3.4-1.6.5-2.9.5-3,0-.6.6-1,1.3-1s1,.6,1,1.3h0s-.3,1.5-.5,3c.8.1,1.5.3,2.1.4,0-.8.3-1.6.3-2.5s.5-1.1,1.1-1.1,1.1.5,1.1,1.1,0,1.8-.4,2.6c1.3.1,2.6.3,3.9.4M56.7,212.9c.8,1.5,2,2.8,3.5,3.4,2.9.8,5.8,1.4,8.6,1.6,3.5.4,6.4-1.6,7.9-5.6-1.3,0-2.5-.3-3.8-.4-.3.8-.6,1.6-1,2.4-.4.5-1,.6-1.5.4-.5-.3-.6-1-.4-1.5s.5-1,.6-1.5c-.8,0-1.4-.3-2.1-.4-.3.9-.5,1.6-.8,2.5-.3.6-.9.9-1.5.6s-.9-.9-.6-1.5h0c.3-.6.5-1.4.6-2l-1.1-.3c-.4,0-.8-.1-1.1-.3-.3.6-.5,1.4-.8,2s-.9.9-1.5.6-.9-.9-.6-1.5.5-1.1.6-1.6c-1.9-.5-3.9-1-5.8-1.6-.4,1.6-.3,3.3.4,4.8M81.8,184.3c-1.8-4.5-7.4-7.6-14.9-9.3-13.8-3.1-31.9,2-43.6,11.8.4,1.9.4,3.9-.3,5.8,10.3,5.3,20.9,9.5,31.8,12.8,2.6-6.1,7.9-7.4,11.9-6.4,2.9.8,4.8,1.1,6.1,1.4l1.5.4c2,.5,3.6,1.8,4.6,3.5,1,1.8,1.3,3.9.9,5.9.8,0,1.5-.1,2.3-.5,2.9-8.3,2.8-17.2-.4-25.3M68.8,220.1c-3.1-.4-6.1-.9-9.1-1.8-2.1-.9-3.9-2.5-4.9-4.5-.5-1.1-.8-2.3-.9-3.5,0-1,0-1.9.3-2.9-11-3.3-21.8-7.6-32.1-12.9-.3.5-.6,1-1,1.5-.5.8-1.3,1.3-2.1,1.6.8,7.1,3.3,13.9,7.1,19.9,5.1,8,12.1,13.4,19.8,15.2,2.6.6,6.1,1.4,9.4.6,11.5-2.5,21-10.4,25.8-21.3-.6,0-1.3.1-1.8.1-2.6,7.8-8.3,8-10.5,7.8M14.7,187.3c.4-.9.9-1.6,1.4-2.4.4-.5.9-.9,1.5-1.3,1.3-6.1,4.1-11.8,8.4-16.4-6.3,4.5-11,10.8-13.5,18.2.6.8,1.4,1.4,2.3,1.9M13.9,189.5c-.8-.5-1.5-1.1-2.3-1.8-1,3.6-1.4,7.4-1.3,11.1,0,.8,0,1.5.1,2.4.6-2.5,1.8-4.9,3.3-7.1-.3-1.5-.3-3.1,0-4.6M16.9,198c-.9-.3-1.6-.8-2-1.5-2.8,4.3-3.9,8-2.9,11.4,4.3,14.4,16.9,24.8,31.9,26.2-14.4-4.4-25-19.4-26.9-36.2M34.6,23.3c0-1.9-.3-3.8-.6-5.6,0,0,3.3-.1,3.3-4.3s-2.3-5.6-2.8-5.6-.6.5-1.6.5c-2.5,0-2.8-3.3-2.8-3.3h1.1c7.3,0,14,2.3,14,18.2s-.4,10.5-1,15.8c-.6,4.3-.9,8.6-.8,13,0,0-12.6-1.5-12.6-11s3.9-7.6,3.9-17.8M54.7,128.6c0,12.5-5.4,22.7-8.4,25.7-9.5,9.5-17.4,2.6-17.5,12.1-4.4,3.9-7.4,9.9-9,16.7h.3c.9.1,1.8.8,2.3,1.5,12.1-9.9,30.7-15,45-11.8,4.1.8,8,2.6,11.3,5.3-4.4-7.1-11.1-12.5-18.9-15.4-1.9-.6-5.3-1.5-5.3-7.5,0-11.4,12.4-2.5,20.7-14.9.4-.6,0-1.1-.6-.6-2.5,2.5-8.5,4.1-11.8,4.1s-3-.1-4.4-.8c2-3.9,4.3-7.6,6.9-11.1-7.6-7.6,5.1-49.5,39.1-49.5,0-7.6-.6-15.4-2.3-22.9-.8.3-7.1,1.8-7.5.4-.3-1.1,4.8-3.8,6.4-4.6-.8-3-1.9-5.8-3.4-8.5-29.1,9.1-23.2,33.2-30.3,33.2s-8.3-3.6-9.5-4.9c-17.3-17.3-9.3-28.8-9.3-51.8S42.3,1.9,31.2,1.9s-15.2,4.8-15.2,4.8c0,0,15.3.5,15.3,16.5s-18.9,21.4-18.9,42.7c0,35.4,42.2,34.7,42.2,62.7"/>
  </g>
</svg>